<svg id="svg" version="1.1" xmlns="http://www.w3.org/2000/svg" xmlns:xlink="http://www.w3.org/1999/xlink" width="400" height="400" viewBox="0, 0, 400,400"><g id="svgg"><path id="path0" d="M167.680 2.080 C 167.416 2.344,167.200 3.064,167.200 3.680 L 167.200 4.800 159.643 4.800 C 151.463 4.800,151.600 4.762,151.600 7.033 L 151.600 8.000 145.400 8.000 L 139.200 8.000 139.200 9.400 L 139.200 10.800 136.746 10.800 C 133.363 10.800,131.214 11.508,130.434 12.881 C 129.848 13.910,129.612 13.995,127.333 13.997 C 124.018 14.001,123.600 14.207,123.600 15.843 L 123.600 17.200 120.587 17.200 C 118.079 17.200,117.534 17.317,117.328 17.900 C 116.672 19.758,115.550 20.400,112.956 20.400 C 109.608 20.400,108.444 20.882,108.141 22.393 C 107.902 23.591,107.880 23.600,105.230 23.600 C 102.382 23.600,101.600 23.997,101.600 25.440 C 101.600 26.128,101.272 26.398,100.100 26.673 C 98.792 26.980,98.584 27.190,98.475 28.313 C 98.355 29.544,98.274 29.600,96.625 29.600 C 93.182 29.600,92.400 29.942,92.400 31.450 C 92.400 32.758,92.351 32.800,90.800 32.800 C 89.920 32.800,89.200 32.968,89.200 33.173 C 89.200 33.378,88.829 33.664,88.376 33.808 C 87.922 33.952,87.353 34.504,87.111 35.035 C 86.801 35.715,86.346 36.000,85.569 36.000 C 83.793 36.000,83.238 36.392,82.966 37.839 C 82.737 39.059,82.575 39.200,81.398 39.200 C 80.012 39.200,79.600 39.712,79.600 41.433 C 79.600 42.266,79.412 42.400,78.243 42.400 C 76.872 42.400,76.400 42.905,76.400 44.370 C 76.400 44.937,75.873 45.145,73.700 45.437 C 71.130 45.783,70.982 45.861,70.626 47.069 C 70.332 48.066,69.975 48.391,68.965 48.580 C 67.668 48.824,67.200 49.421,67.200 50.833 C 67.200 51.417,66.916 51.600,66.014 51.600 C 64.753 51.600,64.000 52.488,64.000 53.974 C 64.000 54.647,63.748 54.800,62.635 54.800 C 61.355 54.800,61.254 54.899,61.000 56.400 C 60.746 57.901,60.645 58.000,59.365 58.000 C 58.082 58.000,58.000 58.081,58.000 59.349 C 58.000 60.613,57.900 60.714,56.400 60.954 C 54.888 61.195,54.800 61.286,54.800 62.605 C 54.800 63.814,54.671 64.000,53.833 64.000 C 52.096 64.000,51.600 64.409,51.600 65.843 C 51.600 67.063,51.487 67.200,50.480 67.200 C 49.066 67.200,48.400 67.858,48.400 69.255 C 48.400 70.197,48.219 70.367,47.100 70.475 C 45.953 70.585,45.776 70.764,45.600 71.989 C 45.466 72.923,45.094 73.531,44.466 73.843 C 42.935 74.605,42.631 75.117,42.410 77.310 C 42.206 79.343,42.162 79.405,40.800 79.600 C 39.513 79.784,39.390 79.921,39.276 81.300 C 39.170 82.574,39.010 82.800,38.209 82.800 C 36.517 82.800,36.000 83.218,36.000 84.585 C 36.000 85.707,35.823 85.935,34.701 86.257 C 33.288 86.662,32.936 87.505,32.847 90.700 C 32.801 92.357,32.765 92.400,31.443 92.400 C 29.816 92.400,29.600 92.825,29.600 96.033 L 29.600 98.400 28.235 98.400 C 26.955 98.400,26.854 98.499,26.600 100.000 C 26.380 101.303,26.165 101.600,25.445 101.600 C 23.990 101.600,23.600 102.378,23.600 105.280 C 23.600 107.992,23.597 108.000,22.480 108.000 C 20.814 108.000,20.400 108.683,20.400 111.437 C 20.400 114.001,20.133 114.400,18.414 114.400 C 17.545 114.400,17.213 115.473,17.205 118.300 C 17.201 120.208,17.118 120.401,16.300 120.406 C 14.454 120.419,14.231 120.912,14.067 125.342 L 13.912 129.527 12.607 129.772 C 11.141 130.047,10.825 130.992,10.791 135.200 C 10.772 137.529,9.872 139.200,8.636 139.200 C 8.090 139.200,8.000 139.877,8.000 143.973 L 8.000 148.747 6.909 148.873 C 5.107 149.083,4.812 150.284,4.806 157.457 C 4.800 164.316,4.776 164.400,2.810 164.400 C 1.604 164.400,1.600 164.530,1.600 200.000 C 1.600 235.470,1.604 235.600,2.810 235.600 C 4.778 235.600,4.800 235.676,4.800 242.617 C 4.800 250.168,5.039 251.200,6.790 251.200 L 8.000 251.200 8.000 256.000 L 8.000 260.800 9.400 260.800 L 10.800 260.800 10.804 263.900 C 10.812 269.054,11.070 269.939,12.651 270.236 L 14.000 270.489 14.047 273.545 C 14.119 278.144,14.369 278.932,15.900 279.383 C 17.143 279.749,17.200 279.854,17.205 281.783 C 17.213 284.528,17.552 285.600,18.414 285.600 C 20.133 285.600,20.400 285.999,20.400 288.563 C 20.400 291.310,20.814 292.000,22.462 292.000 C 23.553 292.000,23.566 292.031,23.682 294.886 C 23.799 297.751,23.809 297.775,25.073 298.137 C 26.148 298.444,26.388 298.743,26.608 300.050 C 26.853 301.496,26.962 301.600,28.235 301.600 L 29.600 301.600 29.600 303.967 C 29.600 307.175,29.816 307.600,31.443 307.600 C 32.765 307.600,32.801 307.643,32.847 309.300 C 32.936 312.495,33.288 313.338,34.701 313.743 C 35.823 314.065,36.000 314.293,36.000 315.415 C 36.000 316.782,36.517 317.200,38.209 317.200 C 39.010 317.200,39.170 317.426,39.276 318.700 C 39.393 320.119,39.481 320.207,40.900 320.324 L 42.400 320.448 42.400 322.335 C 42.400 324.502,43.142 325.798,44.591 326.162 C 45.420 326.370,45.600 326.656,45.600 327.765 C 45.600 329.144,46.105 329.600,47.633 329.600 C 48.206 329.600,48.400 329.883,48.400 330.720 C 48.400 332.141,49.059 332.800,50.480 332.800 C 51.440 332.800,51.600 332.960,51.600 333.920 C 51.600 335.341,52.259 336.000,53.680 336.000 C 54.688 336.000,54.800 336.137,54.800 337.365 C 54.800 338.645,54.899 338.746,56.400 339.000 C 57.901 339.254,58.000 339.355,58.000 340.635 C 58.000 341.927,58.074 342.000,59.395 342.000 C 60.714 342.000,60.805 342.088,61.046 343.600 C 61.286 345.100,61.387 345.200,62.651 345.200 C 63.748 345.200,64.000 345.355,64.000 346.026 C 64.000 347.512,64.753 348.400,66.014 348.400 C 66.916 348.400,67.200 348.583,67.200 349.167 C 67.200 350.590,67.671 351.177,69.016 351.429 C 70.069 351.627,70.407 351.921,70.601 352.807 C 70.887 354.107,71.282 354.309,74.226 354.655 C 76.291 354.897,76.395 354.966,76.637 356.254 C 76.862 357.455,77.029 357.600,78.193 357.600 C 79.406 357.600,79.516 357.713,79.754 359.200 C 79.994 360.704,80.092 360.800,81.373 360.800 C 82.587 360.800,82.767 360.943,83.018 362.100 C 83.388 363.805,83.738 363.987,86.676 363.994 L 89.152 364.000 89.276 365.500 C 89.393 366.914,89.485 367.007,90.876 367.123 C 92.213 367.234,92.364 367.366,92.476 368.523 C 92.599 369.791,92.620 369.803,95.500 370.168 C 98.049 370.492,98.401 370.637,98.406 371.368 C 98.417 372.821,98.936 373.126,101.903 373.418 L 104.800 373.703 104.800 375.052 C 104.800 376.378,104.829 376.400,106.557 376.400 C 108.109 376.400,108.343 376.519,108.571 377.426 C 108.927 378.844,110.949 379.600,114.387 379.600 L 117.200 379.600 117.200 380.720 C 117.200 382.417,117.873 382.800,120.855 382.800 L 123.549 382.800 123.675 384.098 C 123.820 385.602,124.558 385.874,128.700 385.953 C 131.222 386.000,132.312 386.551,132.895 388.071 C 133.122 388.662,135.562 389.200,138.012 389.200 C 138.879 389.200,139.172 389.433,139.388 390.296 C 139.794 391.914,140.091 391.987,146.273 391.994 L 151.947 392.000 152.073 393.091 C 152.284 394.903,153.473 395.188,160.850 395.194 L 167.500 395.200 167.730 396.349 C 168.101 398.203,167.970 398.195,202.116 398.311 C 237.599 398.432,237.755 398.424,238.468 396.377 L 238.878 395.200 244.816 395.200 C 251.207 395.200,253.232 394.651,253.720 392.786 C 253.910 392.059,254.291 392.000,258.775 392.000 C 263.025 392.000,263.658 391.913,263.893 391.300 C 264.372 390.050,265.753 389.227,267.400 389.210 C 272.061 389.161,273.200 388.794,273.200 387.344 L 273.200 386.000 276.300 385.977 C 280.421 385.947,282.160 385.348,282.327 383.900 C 282.450 382.829,282.520 382.800,284.994 382.800 C 288.378 382.800,288.800 382.597,288.800 380.974 L 288.800 379.634 291.900 379.517 L 295.000 379.400 295.123 377.916 L 295.246 376.433 298.323 376.316 L 301.400 376.200 301.521 374.953 C 301.641 373.721,301.679 373.701,304.521 373.353 C 307.393 373.001,307.400 372.997,307.525 371.700 C 307.639 370.520,307.773 370.400,308.976 370.400 C 309.705 370.400,310.526 370.130,310.800 369.800 C 311.074 369.470,311.550 369.200,311.858 369.200 C 312.165 369.200,312.622 368.750,312.873 368.200 C 313.237 367.400,313.620 367.200,314.784 367.200 C 316.530 367.200,317.200 366.623,317.200 365.120 C 317.200 364.105,317.332 364.000,318.613 364.000 C 319.597 364.000,320.100 363.788,320.272 363.300 C 320.814 361.764,322.113 360.800,323.641 360.800 C 325.371 360.800,326.400 359.969,326.400 358.571 C 326.400 357.705,326.573 357.600,328.000 357.600 C 329.557 357.600,329.600 357.563,329.600 356.224 C 329.600 354.923,329.681 354.842,331.100 354.724 C 332.519 354.607,332.607 354.519,332.724 353.100 C 332.842 351.679,332.921 351.600,334.234 351.600 C 335.302 351.600,335.699 351.394,335.964 350.700 C 336.452 349.423,337.537 348.613,339.514 348.049 C 340.911 347.650,341.270 347.350,341.455 346.424 C 341.645 345.474,341.933 345.249,343.223 345.043 C 344.600 344.822,344.792 344.647,345.027 343.398 C 345.254 342.189,345.443 342.000,346.430 342.000 C 347.645 342.000,348.400 341.090,348.400 339.626 C 348.400 338.973,348.654 338.800,349.613 338.800 C 350.833 338.800,350.944 338.670,351.361 336.751 C 351.528 335.987,351.912 335.638,352.776 335.465 C 353.734 335.273,354.040 334.937,354.371 333.714 C 354.596 332.881,355.110 331.995,355.513 331.744 C 355.917 331.494,356.948 330.189,357.805 328.844 C 358.766 327.336,359.637 326.400,360.081 326.400 C 360.633 326.400,360.800 326.082,360.800 325.035 C 360.800 323.755,360.899 323.654,362.400 323.400 C 363.893 323.148,364.000 323.040,364.000 321.797 C 364.000 320.617,364.150 320.431,365.300 320.182 C 366.805 319.855,367.185 319.406,367.194 317.950 C 367.199 317.110,367.435 316.853,368.377 316.665 C 369.654 316.409,370.393 314.739,370.398 312.100 C 370.400 310.891,370.494 310.800,371.749 310.800 C 373.003 310.800,373.115 310.693,373.343 309.267 C 373.522 308.146,373.861 307.610,374.602 307.272 C 375.797 306.727,376.400 305.353,376.400 303.174 C 376.400 301.776,376.508 301.600,377.367 301.600 C 379.412 301.600,379.600 301.312,379.600 298.181 L 379.600 295.248 381.100 295.124 L 382.600 295.000 382.722 292.878 C 382.843 290.757,383.322 289.947,385.035 288.959 C 385.568 288.652,385.861 287.925,386.000 286.559 C 386.225 284.351,387.071 282.800,388.050 282.800 C 388.867 282.800,389.187 281.658,389.195 278.725 C 389.200 276.453,389.201 276.451,390.500 276.325 L 391.800 276.200 391.917 272.613 C 392.041 268.809,392.451 267.871,394.300 267.164 C 395.121 266.850,395.200 266.560,395.200 263.868 L 395.200 260.916 396.499 260.543 C 398.390 260.001,398.301 262.937,398.353 199.274 C 398.403 137.137,398.469 139.200,396.422 139.200 L 395.273 139.200 395.136 134.985 C 394.992 130.513,394.770 130.019,392.900 130.006 C 392.050 130.000,392.000 129.838,391.998 127.100 C 391.995 123.201,391.433 121.274,390.210 120.967 C 389.363 120.754,389.225 120.429,388.979 118.064 C 388.670 115.083,388.304 114.400,387.019 114.400 C 386.223 114.400,386.100 114.113,385.768 111.500 C 385.411 108.688,385.360 108.588,384.100 108.217 C 382.923 107.871,382.796 107.681,382.753 106.217 C 382.661 103.092,382.300 102.225,380.997 102.001 C 379.947 101.821,379.775 101.599,379.600 100.198 C 379.411 98.686,379.320 98.593,377.917 98.477 L 376.434 98.354 376.317 95.477 L 376.200 92.600 374.926 92.477 C 373.692 92.357,373.644 92.281,373.397 90.077 C 373.051 86.983,372.974 86.819,371.672 86.365 C 370.820 86.068,370.441 85.595,370.167 84.484 C 369.848 83.194,369.630 82.984,368.500 82.875 C 367.381 82.767,367.200 82.597,367.200 81.655 C 367.200 80.258,366.534 79.600,365.120 79.600 C 364.165 79.600,364.000 79.438,363.998 78.500 C 363.993 76.052,363.220 74.384,361.977 74.135 C 360.971 73.934,360.800 73.716,360.800 72.630 C 360.800 71.064,360.181 70.400,358.720 70.400 C 357.713 70.400,357.600 70.263,357.600 69.043 C 357.600 67.668,357.096 67.200,355.612 67.200 C 355.106 67.200,354.812 66.791,354.634 65.839 C 354.379 64.480,353.794 64.000,352.393 64.000 C 351.850 64.000,351.617 63.655,351.525 62.713 C 351.416 61.590,351.208 61.380,349.900 61.073 C 348.530 60.751,348.400 60.603,348.400 59.360 C 348.400 58.043,348.350 58.000,346.824 58.000 C 345.292 58.000,345.245 57.958,345.124 56.500 C 345.007 55.086,344.915 54.993,343.523 54.877 C 342.135 54.762,342.038 54.665,341.923 53.277 C 341.807 51.885,341.714 51.793,340.300 51.676 C 338.891 51.559,338.800 51.471,338.800 50.216 C 338.800 49.002,338.663 48.847,337.301 48.525 C 336.063 48.232,335.768 47.965,335.601 46.985 C 335.407 45.842,335.296 45.787,332.500 45.432 L 329.600 45.064 329.600 43.732 C 329.600 42.445,329.546 42.400,328.000 42.400 L 326.400 42.400 326.400 40.800 L 326.400 39.200 324.800 39.200 C 323.248 39.200,323.200 39.160,323.200 37.843 C 323.200 36.409,322.704 36.000,320.967 36.000 C 320.372 36.000,319.384 35.384,318.400 34.400 C 317.143 33.143,316.500 32.800,315.400 32.800 C 314.109 32.800,314.000 32.706,314.000 31.590 C 314.000 30.104,312.929 29.600,309.774 29.600 L 307.600 29.600 307.600 28.200 C 307.600 27.004,307.465 26.800,306.676 26.800 C 305.419 26.800,304.483 26.003,304.328 24.800 C 304.207 23.856,304.034 23.789,301.224 23.600 C 298.286 23.403,298.243 23.384,297.925 22.150 C 297.545 20.676,296.642 20.400,292.201 20.400 L 289.302 20.400 289.046 18.800 L 288.791 17.200 285.795 17.200 L 282.800 17.200 282.800 16.080 C 282.800 14.358,282.137 14.000,278.948 14.000 C 276.257 14.000,276.047 13.938,275.928 13.104 C 275.744 11.818,273.896 11.087,270.300 10.878 C 267.655 10.724,267.200 10.592,267.200 9.981 C 267.200 8.040,267.071 8.000,260.765 8.000 L 254.815 8.000 254.574 6.900 C 254.442 6.295,254.264 5.575,254.179 5.300 C 254.063 4.924,252.195 4.800,246.620 4.800 L 239.215 4.800 238.974 3.700 C 238.842 3.095,238.664 2.375,238.579 2.100 C 238.359 1.385,168.394 1.366,167.680 2.080 M297.286 74.285 C 299.443 76.409,299.503 76.632,298.431 78.477 C 297.832 79.508,297.572 81.143,297.251 85.884 C 296.894 91.165,296.679 92.370,295.620 95.014 C 294.623 97.505,294.400 98.633,294.400 101.198 C 294.400 108.727,293.585 116.504,292.534 119.000 C 291.639 121.126,291.481 122.269,291.150 129.000 C 290.796 136.197,290.713 136.735,289.588 139.145 C 288.935 140.545,288.400 142.260,288.400 142.956 C 288.400 145.144,286.854 156.499,286.243 158.800 C 285.704 160.830,285.714 161.062,286.370 161.800 C 287.943 163.571,287.698 165.567,285.541 168.545 C 284.913 169.411,284.400 170.639,284.400 171.273 C 284.400 172.523,283.482 175.000,282.653 175.985 C 282.351 176.344,281.948 178.776,281.684 181.833 C 281.364 185.534,280.932 187.894,280.211 189.895 C 279.649 191.452,279.017 194.092,278.805 195.764 C 278.412 198.862,277.742 200.652,276.631 201.574 C 274.147 203.636,274.209 206.257,276.798 208.599 C 277.284 209.039,277.959 209.939,278.297 210.599 C 278.635 211.260,279.347 212.340,279.877 213.000 C 281.513 215.033,283.664 218.499,284.633 220.663 C 285.141 221.798,285.750 222.845,285.984 222.990 C 286.690 223.426,287.885 226.087,288.185 227.888 C 288.340 228.817,288.839 230.051,289.296 230.631 C 290.189 231.767,291.184 235.379,291.194 237.525 C 291.197 238.254,291.728 239.964,292.373 241.325 C 293.339 243.363,293.622 244.671,293.979 248.738 C 294.593 255.725,295.643 256.647,299.787 253.835 C 300.571 253.303,302.137 252.752,303.301 252.599 C 304.455 252.448,306.824 251.688,308.564 250.911 C 313.734 248.601,323.661 248.697,327.143 251.090 C 327.711 251.480,329.076 252.250,330.175 252.800 C 333.077 254.252,340.993 263.176,340.637 264.595 C 339.902 267.525,337.233 266.394,332.682 261.226 C 330.202 258.409,328.653 257.014,327.300 256.375 C 326.255 255.882,325.028 255.146,324.574 254.740 C 322.282 252.687,314.923 252.839,310.569 255.030 C 309.071 255.783,307.296 256.401,306.623 256.402 C 303.161 256.409,299.152 259.184,297.628 262.629 C 296.670 264.795,295.779 265.295,293.836 264.759 C 292.374 264.355,288.000 266.478,288.000 267.591 C 288.000 267.983,284.799 269.853,280.600 271.914 C 279.060 272.670,277.512 273.542,277.159 273.853 C 274.390 276.291,257.027 276.185,253.655 273.709 C 253.075 273.283,251.707 272.595,250.615 272.181 C 249.523 271.766,248.083 270.971,247.414 270.413 C 246.745 269.856,245.838 269.203,245.399 268.963 C 244.959 268.722,244.087 267.768,243.459 266.842 C 241.412 263.819,238.045 260.509,236.096 259.603 C 235.053 259.118,233.840 258.391,233.400 257.988 C 232.960 257.584,231.748 256.890,230.707 256.444 C 229.666 255.999,228.256 255.222,227.573 254.717 C 225.518 253.198,211.820 253.312,209.200 254.870 C 208.210 255.459,206.230 256.239,204.800 256.604 C 203.370 256.968,201.435 257.771,200.500 258.388 C 199.565 259.005,198.011 259.628,197.046 259.772 C 196.027 259.925,194.980 260.387,194.546 260.875 C 194.136 261.337,192.872 262.130,191.737 262.636 C 190.602 263.143,189.554 263.750,189.408 263.986 C 189.263 264.222,188.301 264.845,187.272 265.370 C 186.242 265.896,184.871 266.882,184.225 267.563 C 183.579 268.243,182.825 268.800,182.549 268.800 C 182.274 268.800,181.218 269.519,180.203 270.397 C 179.188 271.276,177.962 272.201,177.479 272.455 C 176.995 272.708,176.060 273.416,175.400 274.030 C 172.789 276.456,170.327 278.400,169.865 278.400 C 169.597 278.400,168.420 279.120,167.249 280.000 C 166.078 280.880,164.903 281.600,164.639 281.600 C 164.374 281.600,163.377 282.174,162.422 282.876 C 159.712 284.869,152.905 285.065,149.477 283.249 C 148.199 282.572,146.399 281.819,145.477 281.575 C 144.555 281.332,142.943 280.588,141.895 279.922 C 140.472 279.017,139.259 278.628,137.095 278.384 C 133.713 278.002,133.028 277.780,131.362 276.529 C 130.681 276.018,129.930 275.600,129.693 275.600 C 129.455 275.600,128.392 274.934,127.331 274.120 C 126.269 273.306,124.590 272.219,123.600 271.704 C 122.610 271.188,121.350 270.518,120.800 270.213 C 117.917 268.616,105.648 267.932,98.674 268.979 C 93.268 269.790,90.903 271.425,86.076 277.683 C 83.388 281.168,82.180 283.048,81.376 284.999 C 80.462 287.215,79.680 287.607,78.159 286.610 C 76.613 285.597,77.668 280.569,79.797 278.802 C 80.158 278.503,80.739 277.705,81.088 277.029 C 82.339 274.609,86.762 269.516,88.800 268.148 C 89.570 267.631,90.585 266.928,91.056 266.585 C 95.032 263.687,115.484 263.265,122.445 265.937 C 123.020 266.158,124.220 266.241,125.111 266.121 C 127.059 265.860,126.963 266.119,127.993 258.312 C 128.456 254.802,129.091 251.717,129.566 250.676 C 130.082 249.542,130.450 247.606,130.614 245.164 C 130.984 239.641,131.540 236.804,132.612 234.958 C 133.137 234.054,133.761 232.074,133.999 230.558 C 134.263 228.880,135.052 226.523,136.016 224.539 C 136.887 222.746,137.600 221.106,137.600 220.895 C 137.600 220.684,138.076 219.812,138.657 218.956 C 139.239 218.100,139.982 216.590,140.309 215.600 C 140.637 214.610,141.401 213.260,142.007 212.600 C 142.614 211.940,143.390 210.845,143.731 210.167 C 144.550 208.539,146.510 206.201,150.843 201.684 C 156.116 196.188,159.150 193.846,165.000 190.756 C 166.320 190.058,167.940 189.086,168.600 188.594 C 169.260 188.103,170.731 187.398,171.869 187.028 C 173.007 186.659,174.162 186.086,174.436 185.756 C 175.206 184.829,176.051 184.483,179.113 183.845 C 180.671 183.520,182.362 182.983,182.872 182.652 C 183.383 182.321,185.060 181.698,186.600 181.269 C 188.140 180.839,190.300 180.019,191.400 179.447 C 193.034 178.596,194.315 178.329,198.400 177.987 C 201.150 177.757,203.760 177.477,204.200 177.364 C 204.640 177.251,206.170 176.826,207.600 176.418 C 212.854 174.920,221.446 174.771,226.327 176.092 C 227.908 176.520,230.044 175.480,230.839 173.896 C 231.308 172.963,232.092 171.660,232.581 171.000 C 233.070 170.340,233.810 168.903,234.225 167.806 C 234.641 166.710,235.570 164.937,236.290 163.866 C 237.011 162.795,237.600 161.674,237.600 161.374 C 237.600 161.073,238.122 160.234,238.759 159.507 C 239.397 158.781,240.132 157.380,240.393 156.393 C 240.654 155.407,241.372 153.790,241.988 152.800 C 242.604 151.810,243.325 150.320,243.589 149.490 C 243.853 148.659,244.529 147.433,245.092 146.764 C 245.654 146.096,246.494 145.031,246.957 144.399 C 247.421 143.767,248.880 141.848,250.200 140.135 C 251.520 138.422,252.870 136.549,253.200 135.972 C 253.893 134.761,255.198 133.048,257.237 130.674 C 258.556 129.137,261.184 125.368,262.901 122.550 C 263.287 121.918,264.277 120.294,265.101 118.942 C 265.925 117.590,266.894 116.150,267.253 115.742 C 267.613 115.334,268.275 114.268,268.724 113.373 C 269.174 112.479,269.839 111.500,270.202 111.198 C 270.565 110.897,271.284 109.818,271.800 108.800 C 272.316 107.782,273.032 106.705,273.392 106.407 C 273.752 106.108,274.296 105.266,274.601 104.536 C 274.906 103.806,275.698 102.531,276.360 101.704 C 277.022 100.877,277.835 99.570,278.166 98.800 C 278.497 98.030,279.670 96.140,280.773 94.600 C 281.876 93.060,283.396 90.892,284.149 89.783 C 284.902 88.673,285.797 87.535,286.137 87.252 C 286.477 86.970,287.135 85.597,287.600 84.200 C 288.065 82.803,288.695 81.453,289.001 81.199 C 289.306 80.946,289.858 79.807,290.227 78.669 C 290.798 76.907,294.342 72.431,295.186 72.406 C 295.289 72.403,296.234 73.248,297.286 74.285 M291.372 88.893 C 290.843 90.063,290.315 90.640,289.696 90.728 C 289.158 90.805,288.528 91.372,288.141 92.128 C 287.784 92.828,286.931 94.043,286.245 94.830 C 284.915 96.356,283.300 98.834,281.470 102.151 C 280.849 103.278,280.003 104.562,279.589 105.005 C 279.176 105.448,278.575 106.440,278.254 107.210 C 277.932 107.979,277.204 109.111,276.635 109.725 C 275.445 111.008,275.409 111.186,276.132 112.174 C 276.566 112.768,276.818 112.819,277.505 112.451 C 277.968 112.203,278.652 112.000,279.025 112.000 C 279.398 112.000,280.382 111.415,281.213 110.700 C 282.043 109.985,283.325 109.000,284.061 108.511 C 290.425 104.285,290.200 104.644,290.807 97.721 C 291.084 94.562,291.446 92.738,292.002 91.701 C 292.833 90.150,293.017 88.561,292.466 87.693 C 292.245 87.346,291.899 87.725,291.372 88.893 M286.108 112.681 C 285.618 112.776,284.860 113.354,284.424 113.966 C 283.983 114.586,282.782 115.399,281.716 115.801 C 280.662 116.198,279.242 116.990,278.559 117.561 C 277.877 118.133,276.752 118.907,276.059 119.281 C 275.081 119.811,274.800 120.229,274.800 121.155 C 274.800 123.964,274.230 124.529,271.686 124.242 C 267.956 123.819,266.836 124.218,265.917 126.293 C 265.486 127.269,264.816 128.384,264.428 128.772 C 264.040 129.160,263.153 130.270,262.456 131.238 C 261.759 132.207,260.294 134.080,259.201 135.400 C 258.108 136.720,256.931 138.430,256.586 139.200 C 256.240 139.970,255.538 141.050,255.025 141.600 C 253.944 142.760,253.500 145.019,254.234 145.628 C 254.590 145.923,254.939 145.820,255.465 145.264 C 255.869 144.836,257.583 144.101,259.274 143.630 C 260.965 143.158,263.125 142.344,264.074 141.819 C 265.023 141.295,266.610 140.656,267.600 140.399 C 268.590 140.143,270.210 139.431,271.200 138.817 C 272.190 138.204,273.900 137.487,275.000 137.224 C 276.100 136.961,277.450 136.331,278.000 135.825 C 278.550 135.319,279.900 134.575,281.000 134.173 C 284.507 132.889,286.717 130.692,286.951 128.257 C 287.803 119.398,287.987 118.305,288.985 116.196 C 290.538 112.913,289.769 111.974,286.108 112.681 M281.252 139.207 C 280.731 139.646,279.291 140.294,278.052 140.648 C 276.814 141.001,274.994 141.817,274.008 142.461 C 273.022 143.104,271.245 143.913,270.058 144.258 C 268.871 144.603,267.338 145.213,266.650 145.614 C 265.963 146.014,264.230 146.634,262.800 146.992 C 261.370 147.350,259.734 147.977,259.165 148.385 C 258.597 148.793,256.818 149.518,255.214 149.996 C 249.965 151.559,245.377 155.258,244.167 158.901 C 243.815 159.959,243.116 161.314,242.613 161.912 C 242.110 162.511,241.244 163.900,240.688 165.000 C 239.581 167.195,236.543 173.039,235.431 175.115 C 234.570 176.721,235.010 177.453,237.068 177.839 C 239.185 178.236,245.065 177.348,246.600 176.400 C 247.329 175.949,249.576 175.221,251.592 174.780 C 253.609 174.340,255.741 173.632,256.330 173.207 C 256.918 172.781,258.707 172.077,260.304 171.641 C 261.901 171.205,263.737 170.472,264.384 170.011 C 265.031 169.551,267.054 168.846,268.880 168.446 C 270.706 168.045,273.100 167.253,274.200 166.685 C 275.300 166.117,276.978 165.337,277.930 164.952 C 279.947 164.135,280.981 162.471,281.385 159.391 C 281.528 158.296,282.115 155.330,282.688 152.800 C 284.825 143.366,284.130 136.783,281.252 139.207 M275.382 170.822 C 274.712 171.238,272.981 171.826,271.536 172.129 C 270.090 172.432,267.938 173.225,266.754 173.892 C 265.569 174.559,263.896 175.230,263.036 175.382 C 262.176 175.535,260.518 176.169,259.353 176.791 C 258.187 177.413,255.951 178.138,254.383 178.403 C 251.583 178.875,244.800 181.999,244.800 182.816 C 244.800 183.009,245.719 183.490,246.843 183.884 C 247.967 184.278,249.362 185.048,249.943 185.595 C 250.524 186.142,251.698 186.909,252.551 187.298 C 253.404 187.688,254.715 188.545,255.465 189.203 C 256.214 189.861,257.091 190.400,257.413 190.400 C 257.734 190.400,258.673 191.005,259.499 191.745 C 260.324 192.486,261.630 193.413,262.400 193.806 C 263.734 194.488,265.823 196.097,268.496 198.500 C 270.079 199.924,270.633 199.887,271.445 198.300 C 271.811 197.585,272.602 196.437,273.201 195.748 C 273.970 194.865,274.438 193.686,274.789 191.748 C 275.062 190.237,275.718 188.064,276.245 186.920 C 276.899 185.503,277.336 183.525,277.617 180.720 C 277.843 178.454,278.472 175.213,279.014 173.518 C 279.556 171.823,280.000 170.338,280.000 170.218 C 280.000 169.681,276.479 170.141,275.382 170.822 M215.710 179.840 C 215.000 180.145,212.660 180.584,210.510 180.817 C 208.359 181.049,206.328 181.319,205.996 181.416 C 205.664 181.513,203.263 181.766,200.660 181.979 C 197.381 182.246,195.415 182.611,194.263 183.167 C 193.348 183.608,191.430 184.265,190.000 184.625 C 188.570 184.986,186.856 185.612,186.191 186.016 C 185.527 186.421,183.631 187.123,181.979 187.576 C 179.291 188.314,176.850 189.442,169.098 193.531 C 167.832 194.199,166.337 195.106,165.776 195.548 C 165.214 195.989,163.950 196.740,162.965 197.217 C 160.710 198.309,149.344 209.568,147.302 212.733 C 146.498 213.980,145.538 215.360,145.169 215.800 C 144.800 216.240,144.285 217.266,144.025 218.080 C 143.764 218.895,143.084 220.245,142.513 221.080 C 141.943 221.916,141.157 223.647,140.766 224.926 C 140.376 226.206,139.750 227.722,139.374 228.296 C 138.998 228.870,138.355 230.873,137.946 232.747 C 137.514 234.722,136.780 236.763,136.201 237.598 C 135.309 238.886,135.177 239.572,134.967 244.020 C 134.838 246.759,134.381 250.530,133.952 252.400 C 133.523 254.270,132.925 256.880,132.623 258.200 C 131.146 264.643,131.477 266.353,134.310 266.913 C 135.825 267.212,135.943 267.314,135.404 267.853 C 134.659 268.598,134.565 273.205,135.280 273.920 C 135.544 274.184,136.669 274.404,137.780 274.410 C 140.629 274.424,143.177 275.087,144.627 276.193 C 145.310 276.714,146.844 277.459,148.035 277.847 C 149.226 278.235,151.176 279.065,152.368 279.691 C 154.874 281.006,157.149 280.927,159.424 279.445 C 160.137 278.980,161.659 278.060,162.805 277.400 C 168.403 274.177,168.791 273.906,172.914 270.343 C 175.639 267.989,178.940 265.600,179.469 265.600 C 179.739 265.600,180.433 264.979,181.011 264.221 C 181.590 263.462,182.634 262.652,183.332 262.422 C 184.029 262.192,185.487 261.372,186.570 260.602 C 187.654 259.831,188.739 259.200,188.981 259.200 C 189.224 259.200,190.006 258.666,190.720 258.014 C 191.474 257.325,193.145 256.485,194.709 256.008 C 196.189 255.557,197.826 254.829,198.348 254.391 C 198.869 253.953,200.309 253.314,201.548 252.971 C 202.786 252.628,204.960 251.774,206.378 251.073 L 208.955 249.800 217.538 249.665 C 226.665 249.521,228.713 249.784,230.705 251.357 C 231.293 251.821,232.949 252.803,234.386 253.540 C 235.824 254.277,237.810 255.300,238.800 255.814 C 239.814 256.340,241.998 258.264,243.800 260.218 C 249.621 266.530,251.079 267.765,253.738 268.637 C 254.872 269.009,256.340 269.692,257.000 270.156 C 258.086 270.920,258.850 271.013,265.044 271.132 L 271.887 271.264 274.905 269.832 C 276.565 269.044,278.096 268.400,278.308 268.400 C 278.519 268.400,279.200 267.995,279.820 267.500 C 280.440 267.005,281.704 266.150,282.628 265.600 C 288.874 261.884,290.902 259.378,290.354 256.055 C 290.185 255.035,290.037 252.199,290.024 249.754 C 290.003 245.951,289.885 245.162,289.208 244.301 C 288.115 242.911,287.671 241.612,287.156 238.288 C 286.893 236.593,286.255 234.613,285.587 233.416 C 284.967 232.307,284.156 230.320,283.784 229.000 C 283.411 227.680,282.865 226.324,282.570 225.986 C 282.274 225.649,281.594 224.382,281.058 223.170 C 280.523 221.959,279.781 220.716,279.411 220.409 C 279.041 220.102,278.316 219.018,277.800 218.000 C 277.284 216.982,276.566 215.904,276.205 215.604 C 275.843 215.304,275.279 214.540,274.952 213.907 C 274.625 213.275,273.152 211.313,271.679 209.548 C 270.205 207.783,268.730 205.840,268.400 205.231 C 268.070 204.621,266.810 203.284,265.600 202.260 C 264.390 201.236,262.832 199.869,262.137 199.224 C 261.442 198.579,259.970 197.593,258.865 197.033 C 257.760 196.473,256.618 195.677,256.328 195.265 C 256.038 194.853,255.047 194.132,254.127 193.663 C 253.207 193.195,252.339 192.625,252.199 192.398 C 252.058 192.171,251.011 191.518,249.872 190.948 C 248.732 190.378,247.440 189.585,247.000 189.186 C 246.560 188.787,245.225 188.077,244.034 187.610 C 242.842 187.142,241.343 186.318,240.703 185.780 C 238.836 184.209,236.249 184.394,234.365 186.234 C 232.643 187.916,231.686 187.658,230.550 185.204 C 229.114 182.099,227.457 181.032,223.420 180.610 C 221.890 180.450,220.270 180.184,219.820 180.018 C 218.020 179.357,216.942 179.311,215.710 179.840 M200.341 197.202 C 201.665 198.527,201.569 200.435,200.125 201.500 C 197.839 203.186,194.886 199.037,196.870 196.926 C 198.031 195.690,198.898 195.759,200.341 197.202 M236.995 206.211 C 238.313 206.557,239.753 207.169,240.195 207.571 C 240.638 207.973,241.486 208.550,242.080 208.852 C 245.834 210.761,247.896 215.466,247.190 220.508 C 246.802 223.277,243.074 231.936,241.978 232.613 C 241.764 232.746,241.219 233.578,240.768 234.462 C 239.638 236.678,236.168 240.102,234.000 241.140 C 233.010 241.615,231.570 242.407,230.800 242.901 C 228.336 244.483,221.956 244.201,217.800 242.327 C 216.040 241.533,214.150 240.750,213.600 240.587 C 213.050 240.424,212.061 239.840,211.403 239.289 C 210.745 238.739,209.485 237.969,208.603 237.579 C 207.006 236.872,203.555 233.726,201.540 231.142 C 199.348 228.329,199.250 223.977,201.308 220.867 C 201.876 220.009,202.531 218.599,202.764 217.732 C 203.306 215.720,207.057 210.958,209.327 209.400 C 210.288 208.740,211.848 207.665,212.793 207.010 C 215.401 205.204,231.174 204.683,236.995 206.211 M225.643 209.629 C 222.839 210.124,218.482 213.649,216.137 217.319 C 214.439 219.975,212.333 219.294,211.883 215.944 C 211.593 213.783,211.266 213.585,210.253 214.957 C 209.784 215.593,208.815 216.743,208.100 217.513 C 207.385 218.282,206.800 219.122,206.800 219.379 C 206.800 219.636,206.171 221.096,205.401 222.623 C 203.756 225.889,203.703 226.469,204.900 228.099 C 206.182 229.844,210.513 233.990,211.060 233.996 C 211.313 233.998,212.451 234.627,213.589 235.392 C 214.727 236.158,216.392 236.982,217.289 237.224 C 218.186 237.465,219.838 238.069,220.960 238.565 C 226.501 241.014,234.270 237.672,237.467 231.466 C 237.825 230.770,238.520 229.660,239.010 229.000 C 239.500 228.340,240.125 227.103,240.398 226.251 C 240.671 225.399,241.413 223.715,242.047 222.510 C 244.726 217.418,243.006 214.285,235.305 210.229 C 233.592 209.327,228.975 209.040,225.643 209.629 M174.469 215.862 C 177.057 218.205,172.744 220.302,169.965 218.052 C 168.909 217.197,169.170 216.592,170.931 215.821 C 172.655 215.066,173.601 215.077,174.469 215.862 M334.759 361.645 C 333.549 362.089,332.800 364.092,332.800 366.884 C 332.800 368.168,332.573 368.881,332.000 369.400 C 330.887 370.407,330.896 373.296,332.016 374.416 C 334.386 376.786,339.829 376.538,341.281 373.994 C 341.656 373.337,342.426 372.589,342.991 372.331 C 344.782 371.515,344.839 368.240,343.095 366.392 C 342.603 365.870,342.012 364.714,341.781 363.824 C 341.159 361.415,338.031 360.444,334.759 361.645 " stroke="none" fill="#fbfbfb" fill-rule="evenodd"></path><path id="path1" d="M292.949 74.506 C 291.541 75.944,290.688 77.248,290.227 78.669 C 289.858 79.807,289.306 80.946,289.001 81.199 C 288.695 81.453,288.065 82.803,287.600 84.200 C 287.135 85.597,286.477 86.970,286.137 87.252 C 285.797 87.535,284.902 88.673,284.149 89.783 C 283.396 90.892,281.876 93.060,280.773 94.600 C 279.670 96.140,278.497 98.030,278.166 98.800 C 277.835 99.570,277.022 100.877,276.360 101.704 C 275.698 102.531,274.906 103.806,274.601 104.536 C 274.296 105.266,273.752 106.108,273.392 106.407 C 273.032 106.705,272.316 107.782,271.800 108.800 C 271.284 109.818,270.565 110.897,270.202 111.198 C 269.839 111.500,269.174 112.479,268.724 113.373 C 268.275 114.268,267.613 115.334,267.253 115.742 C 266.894 116.150,265.925 117.590,265.101 118.942 C 264.277 120.294,263.287 121.918,262.901 122.550 C 261.184 125.368,258.556 129.137,257.237 130.674 C 255.198 133.048,253.893 134.761,253.200 135.972 C 252.870 136.549,251.520 138.422,250.200 140.135 C 248.880 141.848,247.421 143.767,246.957 144.399 C 246.494 145.031,245.654 146.096,245.092 146.764 C 244.529 147.433,243.853 148.659,243.589 149.490 C 243.325 150.320,242.604 151.810,241.988 152.800 C 241.372 153.790,240.654 155.407,240.393 156.393 C 240.132 157.380,239.397 158.781,238.759 159.507 C 238.122 160.234,237.600 161.073,237.600 161.374 C 237.600 161.674,237.011 162.795,236.290 163.866 C 235.570 164.937,234.641 166.710,234.225 167.806 C 233.810 168.903,233.070 170.340,232.581 171.000 C 232.092 171.660,231.308 172.963,230.839 173.896 C 230.044 175.480,227.908 176.520,226.327 176.092 C 221.446 174.771,212.854 174.920,207.600 176.418 C 206.170 176.826,204.640 177.251,204.200 177.364 C 203.760 177.477,201.150 177.757,198.400 177.987 C 194.315 178.329,193.034 178.596,191.400 179.447 C 190.300 180.019,188.140 180.839,186.600 181.269 C 185.060 181.698,183.383 182.321,182.872 182.652 C 182.362 182.983,180.671 183.520,179.113 183.845 C 176.051 184.483,175.206 184.829,174.436 185.756 C 174.162 186.086,173.007 186.659,171.869 187.028 C 170.731 187.398,169.260 188.103,168.600 188.594 C 167.940 189.086,166.320 190.058,165.000 190.756 C 159.150 193.846,156.116 196.188,150.843 201.684 C 146.510 206.201,144.550 208.539,143.731 210.167 C 143.390 210.845,142.614 211.940,142.007 212.600 C 141.401 213.260,140.637 214.610,140.309 215.600 C 139.982 216.590,139.239 218.100,138.657 218.956 C 138.076 219.812,137.600 220.684,137.600 220.895 C 137.600 221.106,136.887 222.746,136.016 224.539 C 135.052 226.523,134.263 228.880,133.999 230.558 C 133.761 232.074,133.137 234.054,132.612 234.958 C 131.540 236.804,130.984 239.641,130.614 245.164 C 130.450 247.606,130.082 249.542,129.566 250.676 C 129.091 251.717,128.456 254.802,127.993 258.312 C 126.963 266.119,127.059 265.860,125.111 266.121 C 124.220 266.241,123.020 266.158,122.445 265.937 C 115.484 263.265,95.032 263.687,91.056 266.585 C 90.585 266.928,89.570 267.631,88.800 268.148 C 86.762 269.516,82.339 274.609,81.088 277.029 C 80.739 277.705,80.158 278.503,79.797 278.802 C 77.668 280.569,76.613 285.597,78.159 286.610 C 79.680 287.607,80.462 287.215,81.376 284.999 C 82.180 283.048,83.388 281.168,86.076 277.683 C 90.903 271.425,93.268 269.790,98.674 268.979 C 105.648 267.932,117.917 268.616,120.800 270.213 C 121.350 270.518,122.610 271.188,123.600 271.704 C 124.590 272.219,126.269 273.306,127.331 274.120 C 128.392 274.934,129.455 275.600,129.693 275.600 C 129.930 275.600,130.681 276.018,131.362 276.529 C 133.028 277.780,133.713 278.002,137.095 278.384 C 139.259 278.628,140.472 279.017,141.895 279.922 C 142.943 280.588,144.555 281.332,145.477 281.575 C 146.399 281.819,148.199 282.572,149.477 283.249 C 152.905 285.065,159.712 284.869,162.422 282.876 C 163.377 282.174,164.374 281.600,164.639 281.600 C 164.903 281.600,166.078 280.880,167.249 280.000 C 168.420 279.120,169.597 278.400,169.865 278.400 C 170.327 278.400,172.789 276.456,175.400 274.030 C 176.060 273.416,176.995 272.708,177.479 272.455 C 177.962 272.201,179.188 271.276,180.203 270.397 C 181.218 269.519,182.274 268.800,182.549 268.800 C 182.825 268.800,183.579 268.243,184.225 267.563 C 184.871 266.882,186.242 265.896,187.272 265.370 C 188.301 264.845,189.263 264.222,189.408 263.986 C 189.554 263.750,190.602 263.143,191.737 262.636 C 192.872 262.130,194.136 261.337,194.546 260.875 C 194.980 260.387,196.027 259.925,197.046 259.772 C 198.011 259.628,199.565 259.005,200.500 258.388 C 201.435 257.771,203.370 256.968,204.800 256.604 C 206.230 256.239,208.210 255.459,209.200 254.870 C 211.820 253.312,225.518 253.198,227.573 254.717 C 228.256 255.222,229.666 255.999,230.707 256.444 C 231.748 256.890,232.960 257.584,233.400 257.988 C 233.840 258.391,235.053 259.118,236.096 259.603 C 238.045 260.509,241.412 263.819,243.459 266.842 C 244.087 267.768,244.959 268.722,245.399 268.963 C 245.838 269.203,246.745 269.856,247.414 270.413 C 248.083 270.971,249.523 271.766,250.615 272.181 C 251.707 272.595,253.075 273.283,253.655 273.709 C 257.027 276.185,274.390 276.291,277.159 273.853 C 277.512 273.542,279.060 272.670,280.600 271.914 C 284.799 269.853,288.000 267.983,288.000 267.591 C 288.000 266.478,292.374 264.355,293.836 264.759 C 295.779 265.295,296.670 264.795,297.628 262.629 C 299.152 259.184,303.161 256.409,306.623 256.402 C 307.296 256.401,309.071 255.783,310.569 255.030 C 314.923 252.839,322.282 252.687,324.574 254.740 C 325.028 255.146,326.255 255.882,327.300 256.375 C 328.653 257.014,330.202 258.409,332.682 261.226 C 337.233 266.394,339.902 267.525,340.637 264.595 C 340.993 263.176,333.077 254.252,330.175 252.800 C 329.076 252.250,327.711 251.480,327.143 251.090 C 323.661 248.697,313.734 248.601,308.564 250.911 C 306.824 251.688,304.455 252.448,303.301 252.599 C 302.137 252.752,300.571 253.303,299.787 253.835 C 295.643 256.647,294.593 255.725,293.979 248.738 C 293.622 244.671,293.339 243.363,292.373 241.325 C 291.728 239.964,291.197 238.254,291.194 237.525 C 291.184 235.379,290.189 231.767,289.296 230.631 C 288.839 230.051,288.340 228.817,288.185 227.888 C 287.885 226.087,286.690 223.426,285.984 222.990 C 285.750 222.845,285.141 221.798,284.633 220.663 C 283.664 218.499,281.513 215.033,279.877 213.000 C 279.347 212.340,278.635 211.260,278.297 210.599 C 277.959 209.939,277.284 209.039,276.798 208.599 C 274.209 206.257,274.147 203.636,276.631 201.574 C 277.742 200.652,278.412 198.862,278.805 195.764 C 279.017 194.092,279.649 191.452,280.211 189.895 C 280.932 187.894,281.364 185.534,281.684 181.833 C 281.948 178.776,282.351 176.344,282.653 175.985 C 283.482 175.000,284.400 172.523,284.400 171.273 C 284.400 170.639,284.913 169.411,285.541 168.545 C 287.698 165.567,287.943 163.571,286.370 161.800 C 285.714 161.062,285.704 160.830,286.243 158.800 C 286.854 156.499,288.400 145.144,288.400 142.956 C 288.400 142.260,288.935 140.545,289.588 139.145 C 290.713 136.735,290.796 136.197,291.150 129.000 C 291.481 122.269,291.639 121.126,292.534 119.000 C 293.585 116.504,294.400 108.727,294.400 101.198 C 294.400 98.633,294.623 97.505,295.620 95.014 C 296.679 92.370,296.894 91.165,297.251 85.884 C 297.572 81.143,297.832 79.508,298.431 78.477 C 299.503 76.632,299.443 76.409,297.286 74.285 C 294.972 72.005,295.420 71.983,292.949 74.506 M292.794 89.206 C 292.797 89.759,292.441 90.882,292.002 91.701 C 291.446 92.738,291.084 94.562,290.807 97.721 C 290.200 104.644,290.425 104.285,284.061 108.511 C 283.325 109.000,282.043 109.985,281.213 110.700 C 280.382 111.415,279.398 112.000,279.025 112.000 C 278.652 112.000,277.968 112.203,277.505 112.451 C 276.818 112.819,276.566 112.768,276.132 112.174 C 275.409 111.186,275.445 111.008,276.635 109.725 C 277.204 109.111,277.932 107.979,278.254 107.210 C 278.575 106.440,279.176 105.448,279.589 105.005 C 280.003 104.562,280.849 103.278,281.470 102.151 C 283.300 98.834,284.915 96.356,286.245 94.830 C 286.931 94.043,287.784 92.828,288.141 92.128 C 288.528 91.372,289.158 90.805,289.696 90.728 C 290.315 90.640,290.843 90.063,291.372 88.893 C 292.180 87.104,292.782 87.236,292.794 89.206 M289.599 113.198 C 289.936 113.827,289.806 114.460,288.985 116.196 C 287.987 118.305,287.803 119.398,286.951 128.257 C 286.717 130.692,284.507 132.889,281.000 134.173 C 279.900 134.575,278.550 135.319,278.000 135.825 C 277.450 136.331,276.100 136.961,275.000 137.224 C 273.900 137.487,272.190 138.204,271.200 138.817 C 270.210 139.431,268.590 140.143,267.600 140.399 C 266.610 140.656,265.023 141.295,264.074 141.819 C 263.125 142.344,260.965 143.158,259.274 143.630 C 257.583 144.101,255.869 144.836,255.465 145.264 C 254.939 145.820,254.590 145.923,254.234 145.628 C 253.500 145.019,253.944 142.760,255.025 141.600 C 255.538 141.050,256.240 139.970,256.586 139.200 C 256.931 138.430,258.108 136.720,259.201 135.400 C 260.294 134.080,261.759 132.207,262.456 131.238 C 263.153 130.270,264.040 129.160,264.428 128.772 C 264.816 128.384,265.486 127.269,265.917 126.293 C 266.836 124.218,267.956 123.819,271.686 124.242 C 274.230 124.529,274.800 123.964,274.800 121.155 C 274.800 120.229,275.081 119.811,276.059 119.281 C 276.752 118.907,277.877 118.133,278.559 117.561 C 279.242 116.990,280.662 116.198,281.716 115.801 C 282.782 115.399,283.983 114.586,284.424 113.966 C 285.599 112.316,288.867 111.830,289.599 113.198 M283.765 143.400 C 283.738 147.030,283.476 149.322,282.688 152.800 C 282.115 155.330,281.528 158.296,281.385 159.391 C 280.981 162.471,279.947 164.135,277.930 164.952 C 276.978 165.337,275.300 166.117,274.200 166.685 C 273.100 167.253,270.706 168.045,268.880 168.446 C 267.054 168.846,265.031 169.551,264.384 170.011 C 263.737 170.472,261.901 171.205,260.304 171.641 C 258.707 172.077,256.918 172.781,256.330 173.207 C 255.741 173.632,253.609 174.340,251.592 174.780 C 249.576 175.221,247.329 175.949,246.600 176.400 C 245.065 177.348,239.185 178.236,237.068 177.839 C 235.010 177.453,234.570 176.721,235.431 175.115 C 236.543 173.039,239.581 167.195,240.688 165.000 C 241.244 163.900,242.110 162.511,242.613 161.912 C 243.116 161.314,243.815 159.959,244.167 158.901 C 245.377 155.258,249.965 151.559,255.214 149.996 C 256.818 149.518,258.597 148.793,259.165 148.385 C 259.734 147.977,261.370 147.350,262.800 146.992 C 264.230 146.634,265.963 146.014,266.650 145.614 C 267.338 145.213,268.871 144.603,270.058 144.258 C 271.245 143.913,273.022 143.104,274.008 142.461 C 274.994 141.817,276.814 141.001,278.052 140.648 C 279.291 140.294,280.731 139.646,281.252 139.207 C 283.395 137.402,283.804 138.085,283.765 143.400 M280.000 170.218 C 280.000 170.338,279.556 171.823,279.014 173.518 C 278.472 175.213,277.843 178.454,277.617 180.720 C 277.336 183.525,276.899 185.503,276.245 186.920 C 275.718 188.064,275.062 190.237,274.789 191.748 C 274.438 193.686,273.970 194.865,273.201 195.748 C 272.602 196.437,271.811 197.585,271.445 198.300 C 270.633 199.887,270.079 199.924,268.496 198.500 C 265.823 196.097,263.734 194.488,262.400 193.806 C 261.630 193.413,260.324 192.486,259.499 191.745 C 258.673 191.005,257.734 190.400,257.413 190.400 C 257.091 190.400,256.214 189.861,255.465 189.203 C 254.715 188.545,253.404 187.688,252.551 187.298 C 251.698 186.909,250.524 186.142,249.943 185.595 C 249.362 185.048,247.967 184.278,246.843 183.884 C 245.719 183.490,244.800 183.009,244.800 182.816 C 244.800 181.999,251.583 178.875,254.383 178.403 C 255.951 178.138,258.187 177.413,259.353 176.791 C 260.518 176.169,262.176 175.535,263.036 175.382 C 263.896 175.230,265.569 174.559,266.754 173.892 C 267.938 173.225,270.090 172.432,271.536 172.129 C 272.981 171.826,274.712 171.238,275.382 170.822 C 276.479 170.141,280.000 169.681,280.000 170.218 M219.820 180.018 C 220.270 180.184,221.890 180.450,223.420 180.610 C 227.457 181.032,229.114 182.099,230.550 185.204 C 231.686 187.658,232.643 187.916,234.365 186.234 C 236.249 184.394,238.836 184.209,240.703 185.780 C 241.343 186.318,242.842 187.142,244.034 187.610 C 245.225 188.077,246.560 188.787,247.000 189.186 C 247.440 189.585,248.732 190.378,249.872 190.948 C 251.011 191.518,252.058 192.171,252.199 192.398 C 252.339 192.625,253.207 193.195,254.127 193.663 C 255.047 194.132,256.038 194.853,256.328 195.265 C 256.618 195.677,257.760 196.473,258.865 197.033 C 259.970 197.593,261.442 198.579,262.137 199.224 C 262.832 199.869,264.390 201.236,265.600 202.260 C 266.810 203.284,268.070 204.621,268.400 205.231 C 268.730 205.840,270.205 207.783,271.679 209.548 C 273.152 211.313,274.625 213.275,274.952 213.907 C 275.279 214.540,275.843 215.304,276.205 215.604 C 276.566 215.904,277.284 216.982,277.800 218.000 C 278.316 219.018,279.041 220.102,279.411 220.409 C 279.781 220.716,280.523 221.959,281.058 223.170 C 281.594 224.382,282.274 225.649,282.570 225.986 C 282.865 226.324,283.411 227.680,283.784 229.000 C 284.156 230.320,284.967 232.307,285.587 233.416 C 286.255 234.613,286.893 236.593,287.156 238.288 C 287.671 241.612,288.115 242.911,289.208 244.301 C 289.885 245.162,290.003 245.951,290.024 249.754 C 290.037 252.199,290.185 255.035,290.354 256.055 C 290.902 259.378,288.874 261.884,282.628 265.600 C 281.704 266.150,280.440 267.005,279.820 267.500 C 279.200 267.995,278.519 268.400,278.308 268.400 C 278.096 268.400,276.565 269.044,274.905 269.832 L 271.887 271.264 265.044 271.132 C 258.850 271.013,258.086 270.920,257.000 270.156 C 256.340 269.692,254.872 269.009,253.738 268.637 C 251.079 267.765,249.621 266.530,243.800 260.218 C 241.998 258.264,239.814 256.340,238.800 255.814 C 237.810 255.300,235.824 254.277,234.386 253.540 C 232.949 252.803,231.293 251.821,230.705 251.357 C 228.713 249.784,226.665 249.521,217.538 249.665 L 208.955 249.800 206.378 251.073 C 204.960 251.774,202.786 252.628,201.548 252.971 C 200.309 253.314,198.869 253.953,198.348 254.391 C 197.826 254.829,196.189 255.557,194.709 256.008 C 193.145 256.485,191.474 257.325,190.720 258.014 C 190.006 258.666,189.224 259.200,188.981 259.200 C 188.739 259.200,187.654 259.831,186.570 260.602 C 185.487 261.372,184.029 262.192,183.332 262.422 C 182.634 262.652,181.590 263.462,181.011 264.221 C 180.433 264.979,179.739 265.600,179.469 265.600 C 178.940 265.600,175.639 267.989,172.914 270.343 C 168.791 273.906,168.403 274.177,162.805 277.400 C 161.659 278.060,160.137 278.980,159.424 279.445 C 157.149 280.927,154.874 281.006,152.368 279.691 C 151.176 279.065,149.226 278.235,148.035 277.847 C 146.844 277.459,145.310 276.714,144.627 276.193 C 143.177 275.087,140.629 274.424,137.780 274.410 C 136.669 274.404,135.544 274.184,135.280 273.920 C 134.565 273.205,134.659 268.598,135.404 267.853 C 135.943 267.314,135.825 267.212,134.310 266.913 C 131.477 266.353,131.146 264.643,132.623 258.200 C 132.925 256.880,133.523 254.270,133.952 252.400 C 134.381 250.530,134.838 246.759,134.967 244.020 C 135.177 239.572,135.309 238.886,136.201 237.598 C 136.780 236.763,137.514 234.722,137.946 232.747 C 138.355 230.873,138.998 228.870,139.374 228.296 C 139.750 227.722,140.376 226.206,140.766 224.926 C 141.157 223.647,141.943 221.916,142.513 221.080 C 143.084 220.245,143.764 218.895,144.025 218.080 C 144.285 217.266,144.800 216.240,145.169 215.800 C 145.538 215.360,146.498 213.980,147.302 212.733 C 149.344 209.568,160.710 198.309,162.965 197.217 C 163.950 196.740,165.214 195.989,165.776 195.548 C 166.337 195.106,167.832 194.199,169.098 193.531 C 176.850 189.442,179.291 188.314,181.979 187.576 C 183.631 187.123,185.527 186.421,186.191 186.016 C 186.856 185.612,188.570 184.986,190.000 184.625 C 191.430 184.265,193.348 183.608,194.263 183.167 C 195.415 182.611,197.381 182.246,200.660 181.979 C 203.263 181.766,205.664 181.513,205.996 181.416 C 206.328 181.319,208.359 181.049,210.510 180.817 C 212.660 180.584,215.000 180.145,215.710 179.840 C 216.942 179.311,218.020 179.357,219.820 180.018 M196.870 196.926 C 195.752 198.116,195.775 198.683,197.014 200.507 C 198.513 202.712,200.420 202.343,201.173 199.702 C 201.898 197.160,198.630 195.052,196.870 196.926 M221.755 205.555 C 214.561 205.819,214.498 205.829,212.793 207.010 C 211.848 207.665,210.288 208.740,209.327 209.400 C 207.057 210.958,203.306 215.720,202.764 217.732 C 202.531 218.599,201.876 220.009,201.308 220.867 C 199.250 223.977,199.348 228.329,201.540 231.142 C 203.555 233.726,207.006 236.872,208.603 237.579 C 209.485 237.969,210.745 238.739,211.403 239.289 C 212.061 239.840,213.050 240.424,213.600 240.587 C 214.150 240.750,216.040 241.533,217.800 242.327 C 221.956 244.201,228.336 244.483,230.800 242.901 C 231.570 242.407,233.010 241.615,234.000 241.140 C 236.168 240.102,239.638 236.678,240.768 234.462 C 241.219 233.578,241.764 232.746,241.978 232.613 C 243.074 231.936,246.802 223.277,247.190 220.508 C 247.896 215.466,245.834 210.761,242.080 208.852 C 241.486 208.550,240.638 207.973,240.195 207.571 C 238.160 205.721,232.900 205.146,221.755 205.555 M235.305 210.229 C 243.006 214.285,244.726 217.418,242.047 222.510 C 241.413 223.715,240.671 225.399,240.398 226.251 C 240.125 227.103,239.500 228.340,239.010 229.000 C 238.520 229.660,237.825 230.770,237.467 231.466 C 234.270 237.672,226.501 241.014,220.960 238.565 C 219.838 238.069,218.186 237.465,217.289 237.224 C 216.392 236.982,214.727 236.158,213.589 235.392 C 212.451 234.627,211.313 233.998,211.060 233.996 C 210.513 233.990,206.182 229.844,204.900 228.099 C 203.703 226.469,203.756 225.889,205.401 222.623 C 206.171 221.096,206.800 219.636,206.800 219.379 C 206.800 219.122,207.385 218.282,208.100 217.513 C 208.815 216.743,209.784 215.593,210.253 214.957 C 211.266 213.585,211.593 213.783,211.883 215.944 C 212.333 219.294,214.439 219.975,216.137 217.319 C 218.482 213.649,222.839 210.124,225.643 209.629 C 228.975 209.040,233.592 209.327,235.305 210.229 M170.931 215.821 C 169.170 216.592,168.909 217.197,169.965 218.052 C 172.744 220.302,177.057 218.205,174.469 215.862 C 173.601 215.077,172.655 215.066,170.931 215.821 " stroke="none" fill="#393939" fill-rule="evenodd"></path></g></svg>